# xmcd
#
# Track frame offsets:
#	150
#	15907
#	30469
#	45093
#	62338
#	76196
#	91532
#	113348
#	134314
#	146016
#
# Disc length: 2143 seconds
#
# Revision: 0
# Processed by: cddbd v1.4PL0 Copyright (c) Steve Scherf et al.
# Submitted via: dBpowerAMP V4.0
#
DISCID=5d085d0a
DTITLE=Various Artist - Pickin' on the Black Crows
DYEAR=1900
DGENRE=Bluegrass
TTITLE0=Jealous Again - Various
TTITLE1=Hard to Handle - 
TTITLE2=Thorn in my Pride - 
TTITLE3=Twice as Hard - 
TTITLE4=Wiser Time - 
TTITLE5=Good Friday - 
TTITLE6=She Talks to Angels - 
TTITLE7=Sister Luck - 
TTITLE8=Remedy - 
TTITLE9=Seeing Things - 
EXTD=
EXTT0=
EXTT1=
EXTT2=
EXTT3=
EXTT4=
EXTT5=
EXTT6=
EXTT7=
EXTT8=
EXTT9=
PLAYORDER=
